<svg width="86" height="75" viewBox="0 0 86 75" fill="none" xmlns="http://www.w3.org/2000/svg">
<path d="M0.51659 70.1323V68.3332C2.16872 68.9078 3.90762 69.193 5.65675 69.1762C8.25253 69.1762 9.55042 68.2261 9.55042 66.326C9.55042 64.7068 8.59349 63.8981 6.67964 63.8998H4.73923C1.57803 63.8998 -0.00171199 62.5291 1.39224e-06 59.7877C1.39224e-06 56.9006 2.02265 55.458 6.06796 55.4597C7.72537 55.4463 9.37687 55.659 10.9768 56.0919V57.891C9.4044 57.3173 7.74168 57.0309 6.06796 57.0454C3.32654 57.0454 1.95583 57.9604 1.95583 59.7903C1.95583 61.4094 2.88534 62.2181 4.74437 62.2164H6.68478C9.90252 62.2164 11.5105 63.5871 11.5088 66.3286C11.5088 69.2841 9.55984 70.7619 5.66189 70.7619C3.92666 70.7775 2.19686 70.5658 0.51659 70.1323Z" fill="#091E51"/>
<path d="M13.606 65.1181C13.606 61.4223 15.3647 59.5753 18.8823 59.577C22.3999 59.5787 24.1596 61.4258 24.1613 65.1181C24.1613 68.8053 22.4016 70.6489 18.8823 70.6489C15.363 70.6489 13.6042 68.8053 13.606 65.1181ZM18.8823 69.076C21.0995 69.076 22.208 67.7422 22.208 65.0744C22.208 62.4649 21.0995 61.1602 18.8823 61.1602C16.6652 61.1602 15.5566 62.4649 15.5566 65.0744C15.5566 67.7422 16.6652 69.076 18.8823 69.076Z" fill="#091E51"/>
<path d="M26.8005 70.6592V59.0373C26.8005 56.3559 28.3212 55.0152 31.3624 55.0152C32.17 55.0099 32.9715 55.1536 33.7269 55.4392V57.0224C32.9686 56.7327 32.1612 56.593 31.3496 56.6112C29.6173 56.6112 28.7512 57.3959 28.7512 58.9654V59.5899H32.1823V61.1731H28.7512V70.6824L26.8005 70.6592Z" fill="#091E51"/>
<path d="M33.2495 67.313C33.2495 65.0411 34.7487 63.9051 37.7472 63.9051C38.7148 63.9049 39.6811 63.9754 40.6385 64.1158V63.0698C40.6385 61.7968 39.643 61.1602 37.6521 61.1602C36.4649 61.1627 35.2843 61.3358 34.1465 61.6742V60.0911C35.2837 59.7483 36.4643 59.5708 37.6521 59.5642C40.9435 59.5642 42.59 60.7113 42.5918 63.0055V70.6464H41.4943L40.8184 69.549C39.7524 70.2693 38.494 70.6517 37.2074 70.6464C34.5688 70.655 33.2495 69.5438 33.2495 67.313ZM37.7472 65.4882C36.0509 65.4882 35.2028 66.0879 35.2028 67.2873C35.2028 68.4867 35.871 69.0864 37.2074 69.0864C38.4398 69.124 39.6487 68.7446 40.6385 68.0095V65.7093C39.6814 65.5654 38.715 65.4915 37.7472 65.4882Z" fill="#091E51"/>
<path d="M51.0367 70.1322V68.3332C52.6889 68.9078 54.4278 69.193 56.1769 69.1762C58.7727 69.1762 60.0706 68.2261 60.0706 66.326C60.0706 64.7068 59.1136 63.8981 57.1998 63.8998H55.2568C52.099 63.8998 50.5193 62.5291 50.5176 59.7877C50.5176 56.9006 52.5411 55.458 56.5881 55.4597C58.2457 55.4482 59.8972 55.6626 61.4969 56.097V57.8961C59.9245 57.3226 58.2618 57.0362 56.5881 57.0505C53.8467 57.0505 52.476 57.9655 52.476 59.7954C52.476 61.4145 53.4046 62.2233 55.2619 62.2215H57.2049C60.4192 62.2215 62.0272 63.5923 62.029 66.3337C62.029 69.2893 60.08 70.7671 56.182 70.7671C54.4466 70.7809 52.7168 70.5675 51.0367 70.1322Z" fill="#091E51"/>
<path d="M64.6526 60.0293C66.1515 59.7255 67.6773 59.574 69.2068 59.5769C72.762 59.5769 74.5388 61.3323 74.5371 64.8431C74.5371 68.7204 72.75 70.6591 69.1759 70.6591C68.2933 70.6632 67.419 70.4884 66.6058 70.1451V74.6839H64.6526V60.0293ZM66.6058 68.4C67.4062 68.7885 68.2864 68.9839 69.1759 68.9706C71.4753 68.9706 72.6258 67.5879 72.6275 64.8225C72.6275 62.4083 71.4839 61.2012 69.1965 61.2012C68.3278 61.1902 67.4605 61.2764 66.611 61.4582L66.6058 68.4Z" fill="#091E51"/>
<path d="M76.6604 67.313C76.6604 65.0411 78.1588 63.9051 81.1555 63.9051C82.1239 63.9049 83.0911 63.9754 84.0494 64.1158V63.0698C84.0494 61.7968 83.053 61.1602 81.0604 61.1602C79.8741 61.1627 78.6943 61.3358 77.5574 61.6742V60.0911C78.6937 59.7483 79.8735 59.5708 81.0604 59.5642C84.3552 59.5642 86.0018 60.7113 86.0001 63.0055V70.6464H84.9026L84.2267 69.549C83.1645 70.2673 81.9109 70.6496 80.6286 70.6464C77.9831 70.655 76.6604 69.5438 76.6604 67.313ZM81.1555 65.4882C79.4592 65.4882 78.6111 66.0879 78.6111 67.2873C78.6111 68.4867 79.2802 69.0863 80.6183 69.0863C81.8506 69.124 83.0596 68.7446 84.0494 68.0095V65.7093C83.0897 65.5651 82.1208 65.4912 81.1503 65.4882H81.1555Z" fill="#091E51"/>
<path d="M70.6747 21.8714V18.8078C70.6747 16.3251 72.0985 14.9013 74.5812 14.9013V13.3927C72.0985 13.3927 70.6747 11.9689 70.6747 9.48616H69.166C69.166 11.9689 67.7422 13.3927 65.2595 13.3927H58.0787C49.6951 13.3927 44.6886 8.38617 44.6886 0H43.1774C43.1774 8.38617 38.1709 13.3927 29.7847 13.3927H22.6065C20.1238 13.3927 18.7 11.9689 18.7 9.48616H17.1913C17.1913 11.9689 15.7675 13.3927 13.2848 13.3927V14.9013C15.7675 14.9013 17.1913 16.3251 17.1913 18.8078V21.8714C15.8334 22.0547 14.5879 22.7238 13.6853 23.7549C12.7828 24.7859 12.2844 26.109 12.2825 27.4793V41.5736C12.2831 42.766 12.7568 43.9095 13.5995 44.7532C14.4422 45.5968 15.5851 46.0718 16.7775 46.0738H22.095V48.8469H26.31L27.6438 46.0738H60.2247L61.5535 48.8469H65.7684V46.0738H71.0859C72.2792 46.0731 73.4235 45.5988 74.2673 44.755C75.1111 43.9112 75.5854 42.7669 75.5861 41.5736V27.4793C75.584 26.1086 75.0853 24.7852 74.1822 23.7541C73.2792 22.723 72.0331 22.0541 70.6747 21.8714ZM74.0903 31.3241V41.5736C74.0896 42.3668 73.7742 43.1273 73.2133 43.6882C72.6525 44.2491 71.8919 44.5645 71.0987 44.5652H65.7684V31.3241L65.8455 31.3987C65.9149 31.4706 65.9868 31.54 66.0588 31.6068L66.249 31.7816C66.3261 31.8459 66.4058 31.9075 66.4854 31.9692C66.5651 32.0309 66.6217 32.0746 66.6911 32.1234C66.7604 32.1722 66.8607 32.2365 66.9481 32.2905C67.0354 32.3444 67.092 32.3804 67.1665 32.4215C67.241 32.4627 67.349 32.5166 67.4441 32.5629C67.5392 32.6092 67.5931 32.6374 67.6702 32.6708C67.7474 32.7043 67.8707 32.7505 67.9709 32.7891C68.0712 32.8276 68.1226 32.8482 68.1997 32.8713C68.2768 32.8944 68.4207 32.933 68.5338 32.9638C68.6469 32.9947 68.6803 33.005 68.7548 33.0204C68.8808 33.0461 69.0118 33.0641 69.1378 33.0821H69.166C69.22 33.0821 69.274 33.1026 69.3305 33.1078C69.7244 33.1489 70.1215 33.1489 70.5153 33.1078C70.5693 33.1078 70.6207 33.0923 70.6747 33.0846H70.7081C70.8366 33.0666 70.9651 33.0486 71.091 33.0229C71.1656 33.0075 71.2401 32.9844 71.312 32.9664C71.4251 32.9356 71.5356 32.9099 71.6462 32.8739C71.7567 32.8379 71.7978 32.8199 71.8749 32.7916C71.952 32.7634 72.0779 32.7171 72.1756 32.6734C72.2733 32.6297 72.3272 32.6015 72.4018 32.5655C72.4763 32.5295 72.5894 32.4755 72.6793 32.4241C72.7693 32.3727 72.8258 32.3367 72.8978 32.293C72.9697 32.2494 73.0725 32.1851 73.1548 32.126C73.237 32.0669 73.291 32.0258 73.3604 31.9718C73.4298 31.9178 73.5198 31.8484 73.5969 31.7842L73.787 31.6094C73.859 31.5426 73.931 31.4732 74.0004 31.4012L74.0903 31.3241ZM64.2726 47.3357H62.5172L61.9004 46.0738H64.2598L64.2726 47.3357ZM30.3476 44.5652H23.6088V39.8876C23.6169 38.5224 24.1646 37.2159 25.1324 36.2529C26.1002 35.29 27.4094 34.7488 28.7747 34.7475H59.1016C60.4701 34.7495 61.782 35.2942 62.7494 36.2622C63.7169 37.2301 64.261 38.5422 64.2623 39.9108V44.5549H30.3373L30.3476 44.5652ZM23.6268 47.3357V46.0738H25.9861L25.3822 47.3357H23.6268ZM13.8091 41.5736V31.3241L13.8862 31.3987C13.953 31.4706 14.0275 31.54 14.0995 31.6068L14.2897 31.7816C14.3668 31.8459 14.4465 31.9075 14.5261 31.9692C14.6058 32.0309 14.6624 32.0746 14.7318 32.1234C14.8011 32.1722 14.9014 32.2365 14.9888 32.2905C15.0761 32.3444 15.1327 32.3804 15.2046 32.4215C15.2766 32.4627 15.3897 32.5166 15.4848 32.5629C15.5799 32.6092 15.6339 32.6374 15.711 32.6708C15.7881 32.7043 15.9114 32.7505 16.0117 32.7891C16.1119 32.8276 16.1633 32.8482 16.2404 32.8713C16.3175 32.8944 16.4614 32.933 16.5745 32.9638C16.6465 32.9818 16.721 33.005 16.7955 33.0204C16.9215 33.0461 17.0525 33.0641 17.1785 33.0821H17.2093C17.2633 33.0821 17.3147 33.1001 17.3712 33.1052C17.7651 33.1463 18.1622 33.1463 18.556 33.1052L18.7179 33.0821H18.7488C18.8773 33.0641 19.0058 33.0461 19.1317 33.0204C19.2063 33.005 19.2782 32.9818 19.3528 32.9638C19.4658 32.933 19.5764 32.9073 19.6869 32.8713C19.7974 32.8353 19.8385 32.8173 19.9156 32.7891C19.9927 32.7608 20.1186 32.7145 20.2163 32.6708C20.314 32.6272 20.3679 32.5989 20.4425 32.5629C20.517 32.5269 20.6301 32.4729 20.72 32.4215C20.81 32.3701 20.8665 32.3342 20.9385 32.2905C21.0105 32.2468 21.1107 32.1825 21.1955 32.1234C21.2803 32.0643 21.3317 32.0232 21.4011 31.9692C21.4705 31.9152 21.5605 31.8459 21.6376 31.7816L21.8277 31.6068C21.8997 31.54 21.9717 31.4706 22.0411 31.3987L22.1182 31.3241V44.5652H16.7775C15.9852 44.5631 15.226 44.2471 14.6662 43.6864C14.1065 43.1257 13.7918 42.3659 13.7911 41.5736H13.8091ZM17.2093 23.398C17.7076 23.302 18.2196 23.302 18.7179 23.398C19.6714 23.5746 20.533 24.0794 21.1532 24.8249C21.7733 25.5705 22.1128 26.5096 22.1128 27.4793C22.1128 28.449 21.7733 29.3881 21.1532 30.1336C20.533 30.8791 19.6714 31.384 18.7179 31.5606C18.2196 31.6565 17.7076 31.6565 17.2093 31.5606C16.2558 31.384 15.3942 30.8791 14.7741 30.1336C14.154 29.3881 13.8144 28.449 13.8144 27.4793C13.8144 26.5096 14.154 25.5705 14.7741 24.8249C15.3942 24.0794 16.2558 23.5746 17.2093 23.398ZM70.6927 31.5606C70.4451 31.6068 70.194 31.6308 69.9422 31.6325C69.6878 31.631 69.4341 31.6069 69.184 31.5606C68.2305 31.384 67.3689 30.8791 66.7488 30.1336C66.1287 29.3881 65.7891 28.449 65.7891 27.4793C65.7891 26.5096 66.1287 25.5705 66.7488 24.8249C67.3689 24.0794 68.2305 23.5746 69.184 23.398C69.4339 23.3504 69.6878 23.3263 69.9422 23.326C70.194 23.3264 70.4453 23.3505 70.6927 23.398C71.6485 23.5717 72.5131 24.0754 73.1357 24.8212C73.7582 25.5671 74.0992 26.5078 74.0992 27.4793C74.0992 28.4508 73.7582 29.3915 73.1357 30.1374C72.5131 30.8832 71.6485 31.3869 70.6927 31.5606ZM68.4952 14.0069C69.0857 13.6219 69.5792 13.1056 69.9371 12.4983C70.338 13.1795 70.9059 13.7473 71.5871 14.1483C70.9798 14.5062 70.4634 14.9996 70.0784 15.5901C70.0322 15.6595 69.9808 15.7237 69.9371 15.7957C69.5384 15.1143 68.971 14.547 68.2896 14.1483C68.3436 14.1046 68.4079 14.0532 68.4772 14.0069H68.4952ZM65.2775 14.9013C67.7602 14.9013 69.184 16.3251 69.184 18.8078V21.8714C67.8268 22.0558 66.5822 22.7253 65.6803 23.7562C64.7784 24.787 64.2802 26.1096 64.2777 27.4793V35.7035C63.653 34.9373 62.8655 34.3198 61.9724 33.8957C61.0794 33.4716 60.1031 33.2516 59.1144 33.2517H44.6886V28.294C44.6886 19.9078 49.6951 14.9013 58.0787 14.9013H65.2775ZM50.7797 13.3927C51.4078 13.6901 52.0562 13.9426 52.7201 14.1483C52.0559 14.3519 51.4074 14.6036 50.7797 14.9013C48.1012 16.1444 45.9496 18.2959 44.7066 20.9744C44.4074 21.6026 44.1548 22.2521 43.951 22.9174C43.746 22.2525 43.4935 21.6031 43.1954 20.9744C41.9516 18.2965 39.8002 16.1451 37.1223 14.9013C36.4935 14.604 35.8442 14.3524 35.1793 14.1483C35.8438 13.9422 36.4931 13.6897 37.1223 13.3927C40.4634 11.8172 42.8202 9.06466 43.951 5.3766C45.0613 9.06466 47.4257 11.8172 50.7617 13.3927H50.7797ZM19.4479 14.0352C19.5044 14.0712 19.5558 14.1123 19.6123 14.1483C18.9307 14.5475 18.3627 15.1147 17.9623 15.7957C17.9289 15.7392 17.8878 15.6878 17.8518 15.6312C17.4619 15.0222 16.9335 14.5141 16.3098 14.1483C16.9908 13.748 17.5579 13.1799 17.9572 12.4983C18.322 13.1181 18.8262 13.6443 19.4299 14.0352H19.4479ZM22.6245 14.9013H29.8027C38.1889 14.9013 43.1954 19.9078 43.1954 28.294V33.2491H28.8029C27.8143 33.2498 26.8381 33.4699 25.9448 33.8934C25.0515 34.3169 24.2633 34.9334 23.6371 35.6984V27.4741C23.6351 26.1039 23.1367 24.7808 22.2342 23.7497C21.3317 22.7187 20.0862 22.0496 18.7282 21.8662V18.8078C18.7 16.3251 20.1186 14.9013 22.6065 14.9013H22.6245Z" fill="#091E51"/>
<path d="M54.648 10.8946C54.648 8.00064 56.4162 6.23243 59.3075 6.23243C56.4162 6.23243 54.648 4.46422 54.648 1.57288C54.648 4.46422 52.8797 6.23243 49.9858 6.23243C52.8797 6.23757 54.648 8.00064 54.648 10.8946Z" fill="#091E51"/>
<path d="M34.5572 25.1765C34.5572 23.5599 35.5467 22.5704 37.1659 22.5704C35.5467 22.5704 34.5572 21.5809 34.5572 19.9644C34.5572 21.5809 33.5703 22.5704 31.9512 22.5704C33.5703 22.5704 34.5572 23.5599 34.5572 25.1765Z" fill="#091E51"/>
</svg>
